<svg width="32" height="32" viewBox="0 0 32 32" fill="none" xmlns="http://www.w3.org/2000/svg">
<mask id="path-1-outside-1_34_4" maskUnits="userSpaceOnUse" x="0" y="7.5" width="32" height="17" fill="black">
<rect fill="white" y="7.5" width="32" height="17"/>
<path d="M4.026 16.79H10.824L10.857 18.594H3.971L4.026 16.79ZM5.709 22.642C5.709 22.906 5.62833 23.115 5.467 23.269C5.30567 23.423 5.05633 23.5 4.719 23.5H1.496C1.15867 23.5 0.909333 23.423 0.748 23.269C0.586667 23.115 0.506 22.906 0.506 22.642C0.506 22.4513 0.55 22.2937 0.638 22.169C0.733333 22.037 0.88 21.9087 1.078 21.784L1.397 21.619C1.55833 21.5383 1.683 21.4283 1.771 21.289C1.859 21.1423 1.97267 20.849 2.112 20.409L5.192 10.938C5.302 10.608 5.34233 10.3733 5.313 10.234C5.28367 10.0947 5.137 9.96633 4.873 9.849C4.66033 9.761 4.499 9.64367 4.389 9.497C4.279 9.35033 4.224 9.17067 4.224 8.958C4.224 8.694 4.30467 8.485 4.466 8.331C4.63467 8.177 4.884 8.1 5.214 8.1H11.396C11.7333 8.1 11.9827 8.177 12.144 8.331C12.3127 8.485 12.397 8.694 12.397 8.958C12.397 9.18533 12.3383 9.37233 12.221 9.519C12.1037 9.66567 11.9277 9.79033 11.693 9.893C11.5243 9.96633 11.429 10.0763 11.407 10.223C11.385 10.3697 11.4143 10.5823 11.495 10.861L14.498 19.958C14.6667 20.486 14.817 20.8747 14.949 21.124C15.081 21.366 15.2753 21.542 15.532 21.652C15.8107 21.7987 16.0013 21.9453 16.104 22.092C16.2067 22.2313 16.258 22.4147 16.258 22.642C16.258 22.906 16.1773 23.115 16.016 23.269C15.8547 23.423 15.6053 23.5 15.268 23.5H10.439C10.0943 23.5 9.84133 23.423 9.68 23.269C9.526 23.115 9.449 22.906 9.449 22.642C9.449 22.4293 9.50033 22.2533 9.603 22.114C9.713 21.9747 9.87067 21.861 10.076 21.773L10.648 21.608C10.824 21.542 10.901 21.4247 10.879 21.256C10.857 21.0873 10.791 20.8233 10.681 20.464L7.238 9.673L7.546 9.684L4.18 20.057C4.08467 20.365 4.00767 20.6143 3.949 20.805C3.89767 20.9883 3.90867 21.1423 3.982 21.267C4.05533 21.3843 4.22767 21.5053 4.499 21.63L5.082 21.795C5.27267 21.8757 5.423 21.982 5.533 22.114C5.65033 22.246 5.709 22.422 5.709 22.642ZM25.678 8.958C25.678 8.694 25.7586 8.485 25.92 8.331C26.0813 8.177 26.3306 8.1 26.668 8.1H30.045C30.3896 8.1 30.6426 8.177 30.804 8.331C30.9653 8.485 31.046 8.694 31.046 8.958C31.046 9.16333 30.9946 9.332 30.892 9.464C30.7893 9.58867 30.628 9.70233 30.408 9.805L30.012 9.97C29.7993 10.0653 29.6306 10.1973 29.506 10.366C29.3886 10.5347 29.2566 10.828 29.11 11.246L25.722 20.827C25.59 21.179 25.491 21.454 25.425 21.652C25.3663 21.85 25.337 22.0443 25.337 22.235V22.653C25.337 22.9243 25.26 23.1333 25.106 23.28C24.9593 23.4267 24.7723 23.5 24.545 23.5H21.553C21.3256 23.5 21.1386 23.4267 20.992 23.28C20.8526 23.1333 20.783 22.9133 20.783 22.62V22.202C20.783 22.0627 20.7536 21.9123 20.695 21.751C20.6436 21.5897 20.5813 21.4063 20.508 21.201L16.878 10.982C16.7753 10.6887 16.669 10.476 16.559 10.344C16.4563 10.2047 16.3023 10.0873 16.097 9.992L15.723 9.838C15.3636 9.66933 15.184 9.376 15.184 8.958C15.184 8.694 15.2646 8.485 15.426 8.331C15.5873 8.177 15.8366 8.1 16.174 8.1H21.454C21.7986 8.1 22.0516 8.177 22.213 8.331C22.3743 8.485 22.455 8.694 22.455 8.958C22.455 9.17067 22.4 9.343 22.29 9.475C22.1873 9.607 22.0296 9.72067 21.817 9.816L21.234 9.981C21.0433 10.0543 20.9223 10.19 20.871 10.388C20.827 10.5787 20.871 10.8683 21.003 11.257L24.38 21.025L23.313 22.169L27.251 11.048C27.361 10.7547 27.3866 10.5273 27.328 10.366C27.2766 10.1973 27.13 10.0653 26.888 9.97L26.305 9.805C26.1143 9.717 25.9603 9.61067 25.843 9.486C25.733 9.354 25.678 9.178 25.678 8.958Z"/>
</mask>
<path d="M4.026 16.79H10.824L10.857 18.594H3.971L4.026 16.79ZM5.709 22.642C5.709 22.906 5.62833 23.115 5.467 23.269C5.30567 23.423 5.05633 23.5 4.719 23.5H1.496C1.15867 23.5 0.909333 23.423 0.748 23.269C0.586667 23.115 0.506 22.906 0.506 22.642C0.506 22.4513 0.55 22.2937 0.638 22.169C0.733333 22.037 0.88 21.9087 1.078 21.784L1.397 21.619C1.55833 21.5383 1.683 21.4283 1.771 21.289C1.859 21.1423 1.97267 20.849 2.112 20.409L5.192 10.938C5.302 10.608 5.34233 10.3733 5.313 10.234C5.28367 10.0947 5.137 9.96633 4.873 9.849C4.66033 9.761 4.499 9.64367 4.389 9.497C4.279 9.35033 4.224 9.17067 4.224 8.958C4.224 8.694 4.30467 8.485 4.466 8.331C4.63467 8.177 4.884 8.1 5.214 8.1H11.396C11.7333 8.1 11.9827 8.177 12.144 8.331C12.3127 8.485 12.397 8.694 12.397 8.958C12.397 9.18533 12.3383 9.37233 12.221 9.519C12.1037 9.66567 11.9277 9.79033 11.693 9.893C11.5243 9.96633 11.429 10.0763 11.407 10.223C11.385 10.3697 11.4143 10.5823 11.495 10.861L14.498 19.958C14.6667 20.486 14.817 20.8747 14.949 21.124C15.081 21.366 15.2753 21.542 15.532 21.652C15.8107 21.7987 16.0013 21.9453 16.104 22.092C16.2067 22.2313 16.258 22.4147 16.258 22.642C16.258 22.906 16.1773 23.115 16.016 23.269C15.8547 23.423 15.6053 23.5 15.268 23.5H10.439C10.0943 23.5 9.84133 23.423 9.68 23.269C9.526 23.115 9.449 22.906 9.449 22.642C9.449 22.4293 9.50033 22.2533 9.603 22.114C9.713 21.9747 9.87067 21.861 10.076 21.773L10.648 21.608C10.824 21.542 10.901 21.4247 10.879 21.256C10.857 21.0873 10.791 20.8233 10.681 20.464L7.238 9.673L7.546 9.684L4.18 20.057C4.08467 20.365 4.00767 20.6143 3.949 20.805C3.89767 20.9883 3.90867 21.1423 3.982 21.267C4.05533 21.3843 4.22767 21.5053 4.499 21.63L5.082 21.795C5.27267 21.8757 5.423 21.982 5.533 22.114C5.65033 22.246 5.709 22.422 5.709 22.642ZM25.678 8.958C25.678 8.694 25.7586 8.485 25.92 8.331C26.0813 8.177 26.3306 8.1 26.668 8.1H30.045C30.3896 8.1 30.6426 8.177 30.804 8.331C30.9653 8.485 31.046 8.694 31.046 8.958C31.046 9.16333 30.9946 9.332 30.892 9.464C30.7893 9.58867 30.628 9.70233 30.408 9.805L30.012 9.97C29.7993 10.0653 29.6306 10.1973 29.506 10.366C29.3886 10.5347 29.2566 10.828 29.11 11.246L25.722 20.827C25.59 21.179 25.491 21.454 25.425 21.652C25.3663 21.85 25.337 22.0443 25.337 22.235V22.653C25.337 22.9243 25.26 23.1333 25.106 23.28C24.9593 23.4267 24.7723 23.5 24.545 23.5H21.553C21.3256 23.5 21.1386 23.4267 20.992 23.28C20.8526 23.1333 20.783 22.9133 20.783 22.62V22.202C20.783 22.0627 20.7536 21.9123 20.695 21.751C20.6436 21.5897 20.5813 21.4063 20.508 21.201L16.878 10.982C16.7753 10.6887 16.669 10.476 16.559 10.344C16.4563 10.2047 16.3023 10.0873 16.097 9.992L15.723 9.838C15.3636 9.66933 15.184 9.376 15.184 8.958C15.184 8.694 15.2646 8.485 15.426 8.331C15.5873 8.177 15.8366 8.1 16.174 8.1H21.454C21.7986 8.1 22.0516 8.177 22.213 8.331C22.3743 8.485 22.455 8.694 22.455 8.958C22.455 9.17067 22.4 9.343 22.29 9.475C22.1873 9.607 22.0296 9.72067 21.817 9.816L21.234 9.981C21.0433 10.0543 20.9223 10.19 20.871 10.388C20.827 10.5787 20.871 10.8683 21.003 11.257L24.38 21.025L23.313 22.169L27.251 11.048C27.361 10.7547 27.3866 10.5273 27.328 10.366C27.2766 10.1973 27.13 10.0653 26.888 9.97L26.305 9.805C26.1143 9.717 25.9603 9.61067 25.843 9.486C25.733 9.354 25.678 9.178 25.678 8.958Z" fill="black"/>
<path d="M4.026 16.79V16.29H3.54101L3.52623 16.7748L4.026 16.79ZM10.824 16.79L11.3239 16.7809L11.3149 16.29H10.824V16.79ZM10.857 18.594V19.094H11.3662L11.3569 18.5849L10.857 18.594ZM3.971 18.594L3.47123 18.5788L3.45552 19.094H3.971V18.594ZM5.467 23.269L5.12176 22.9073H5.12176L5.467 23.269ZM0.638 22.169L0.232637 21.8762L0.229516 21.8807L0.638 22.169ZM1.078 21.784L0.848289 21.3399L0.829497 21.3496L0.811594 21.3609L1.078 21.784ZM1.397 21.619L1.17337 21.1717L1.16729 21.1749L1.397 21.619ZM1.771 21.289L2.19386 21.5561L2.19975 21.5462L1.771 21.289ZM2.112 20.409L1.6365 20.2544L1.63533 20.2581L2.112 20.409ZM5.192 10.938L4.71765 10.7799L4.71651 10.7834L5.192 10.938ZM5.313 10.234L4.82373 10.337V10.337L5.313 10.234ZM4.873 9.849L5.07614 9.39194L5.06418 9.38699L4.873 9.849ZM4.389 9.497L3.989 9.797L3.989 9.797L4.389 9.497ZM4.466 8.331L4.12878 7.96167L4.12076 7.96932L4.466 8.331ZM12.144 8.331L11.7987 8.69277L11.8069 8.70024L12.144 8.331ZM11.693 9.893L11.8924 10.3515L11.8934 10.3511L11.693 9.893ZM11.407 10.223L11.9015 10.2972H11.9015L11.407 10.223ZM11.495 10.861L11.0147 11L11.0173 11.0089L11.0202 11.0177L11.495 10.861ZM14.498 19.958L14.9743 19.8058L14.9728 19.8013L14.498 19.958ZM14.949 21.124L14.5071 21.358L14.5101 21.3634L14.949 21.124ZM15.532 21.652L15.7649 21.2095L15.7473 21.2003L15.729 21.1924L15.532 21.652ZM16.104 22.092L15.6943 22.3788L15.7015 22.3886L16.104 22.092ZM16.016 23.269L16.3612 23.6307V23.6307L16.016 23.269ZM9.68 23.269L9.32635 23.6226L9.33476 23.6307L9.68 23.269ZM9.603 22.114L9.21056 21.8042L9.20541 21.8107L9.20047 21.8174L9.603 22.114ZM10.076 21.773L9.93742 21.2926L9.90758 21.3012L9.87904 21.3134L10.076 21.773ZM10.648 21.608L10.7866 22.0884L10.8053 22.083L10.8236 22.0762L10.648 21.608ZM10.879 21.256L10.3832 21.3207V21.3207L10.879 21.256ZM10.681 20.464L11.1591 20.3176L11.1573 20.312L10.681 20.464ZM7.238 9.673L7.25585 9.17332L6.54564 9.14795L6.76166 9.82498L7.238 9.673ZM7.546 9.684L8.02159 9.83833L8.22614 9.20797L7.56385 9.18432L7.546 9.684ZM4.18 20.057L3.70437 19.9027L3.70236 19.9092L4.18 20.057ZM3.949 20.805L3.47096 20.6579L3.46752 20.6702L3.949 20.805ZM3.982 21.267L3.55088 21.5206L3.558 21.532L3.982 21.267ZM4.499 21.63L4.29025 22.0843L4.32551 22.1005L4.36284 22.1111L4.499 21.63ZM5.082 21.795L5.27682 21.3345L5.24813 21.3224L5.21816 21.3139L5.082 21.795ZM5.533 22.114L5.14889 22.4341L5.154 22.4402L5.1593 22.4462L5.533 22.114ZM4.026 16.79V17.29H10.824V16.79V16.29H4.026V16.79ZM10.824 16.79L10.3241 16.7991L10.3571 18.6031L10.857 18.594L11.3569 18.5849L11.3239 16.7809L10.824 16.79ZM10.857 18.594V18.094H3.971V18.594V19.094H10.857V18.594ZM3.971 18.594L4.47077 18.6092L4.52577 16.8052L4.026 16.79L3.52623 16.7748L3.47123 18.5788L3.971 18.594ZM5.709 22.642H5.209C5.209 22.7965 5.16618 22.8649 5.12176 22.9073L5.467 23.269L5.81224 23.6307C6.09049 23.3651 6.209 23.0155 6.209 22.642H5.709ZM5.467 23.269L5.12176 22.9073C5.09145 22.9363 4.9922 23 4.719 23V23.5V24C5.12047 24 5.51989 23.9097 5.81224 23.6307L5.467 23.269ZM4.719 23.5V23H1.496V23.5V24H4.719V23.5ZM1.496 23.5V23C1.2228 23 1.12355 22.9363 1.09324 22.9073L0.748 23.269L0.402762 23.6307C0.695113 23.9097 1.09454 24 1.496 24V23.5ZM0.748 23.269L1.09324 22.9073C1.04882 22.8649 1.006 22.7965 1.006 22.642H0.506H0.00600004C0.00600004 23.0155 0.124515 23.3651 0.402762 23.6307L0.748 23.269ZM0.506 22.642H1.006C1.006 22.5286 1.03143 22.4787 1.04648 22.4573L0.638 22.169L0.229516 21.8807C0.0685663 22.1087 0.00600004 22.374 0.00600004 22.642H0.506ZM0.638 22.169L1.04334 22.4617C1.08856 22.3991 1.17887 22.3113 1.34441 22.2071L1.078 21.784L0.811594 21.3609C0.581133 21.506 0.37811 21.6749 0.23266 21.8763L0.638 22.169ZM1.078 21.784L1.30771 22.2281L1.62671 22.0631L1.397 21.619L1.16729 21.1749L0.848289 21.3399L1.078 21.784ZM1.397 21.619L1.62061 22.0662C1.85555 21.9487 2.0525 21.7796 2.19374 21.556L1.771 21.289L1.34826 21.022C1.3135 21.077 1.26112 21.1279 1.17339 21.1718L1.397 21.619ZM1.771 21.289L2.19975 21.5462C2.32214 21.3423 2.45098 20.9948 2.58867 20.5599L2.112 20.409L1.63533 20.2581C1.49436 20.7032 1.39586 20.9424 1.34225 21.0318L1.771 21.289ZM2.112 20.409L2.58749 20.5636L5.66749 11.0926L5.192 10.938L4.71651 10.7834L1.63651 20.2544L2.112 20.409ZM5.192 10.938L5.66634 11.0961C5.72605 10.917 5.77162 10.7499 5.79752 10.5992C5.82217 10.4558 5.83582 10.2903 5.80228 10.131L5.313 10.234L4.82373 10.337C4.81951 10.317 4.82766 10.3385 4.81198 10.4298C4.79755 10.5137 4.76796 10.629 4.71766 10.7799L5.192 10.938ZM5.313 10.234L5.80228 10.131C5.75836 9.92238 5.63554 9.76659 5.51025 9.65696C5.38567 9.54795 5.23405 9.46231 5.07607 9.39209L4.873 9.849L4.66993 10.3059C4.77595 10.353 4.82967 10.3902 4.85175 10.4095C4.87313 10.4282 4.83831 10.4063 4.82373 10.337L5.313 10.234ZM4.873 9.849L5.06418 9.38699C4.91346 9.32462 4.83305 9.25573 4.789 9.197L4.389 9.497L3.989 9.797C4.16495 10.0316 4.40721 10.1974 4.68182 10.311L4.873 9.849ZM4.389 9.497L4.789 9.197C4.75393 9.15024 4.724 9.08047 4.724 8.958H4.224H3.724C3.724 9.26086 3.80407 9.55042 3.989 9.797L4.389 9.497ZM4.224 8.958H4.724C4.724 8.80346 4.76682 8.73508 4.81124 8.69268L4.466 8.331L4.12076 7.96932C3.84252 8.23492 3.724 8.58454 3.724 8.958H4.224ZM4.466 8.331L4.80313 8.70024C4.84588 8.66122 4.95384 8.6 5.214 8.6V8.1V7.6C4.81416 7.6 4.42346 7.69278 4.12887 7.96176L4.466 8.331ZM5.214 8.1V8.6H11.396V8.1V7.6H5.214V8.1ZM11.396 8.1V8.6C11.6692 8.6 11.7684 8.66374 11.7988 8.69268L12.144 8.331L12.4892 7.96932C12.1969 7.69026 11.7975 7.6 11.396 7.6V8.1ZM12.144 8.331L11.8069 8.70024C11.8552 8.74441 11.897 8.81043 11.897 8.958H12.397H12.897C12.897 8.57757 12.7701 8.22558 12.4811 7.96176L12.144 8.331ZM12.397 8.958H11.897C11.897 9.09649 11.863 9.16617 11.8306 9.20665L12.221 9.519L12.6114 9.83135C12.8137 9.57849 12.897 9.27418 12.897 8.958H12.397ZM12.221 9.519L11.8306 9.20665C11.7789 9.27129 11.6787 9.35348 11.4926 9.43492L11.693 9.893L11.8934 10.3511C12.1766 10.2272 12.4285 10.06 12.6114 9.83135L12.221 9.519ZM11.693 9.893L11.4936 9.43446C11.2106 9.55753 10.9664 9.78946 10.9125 10.1488L11.407 10.223L11.9015 10.2972C11.9004 10.3043 11.8977 10.3152 11.892 10.3278C11.8862 10.3403 11.8792 10.3506 11.8728 10.358C11.8604 10.3723 11.859 10.366 11.8924 10.3515L11.693 9.893ZM11.407 10.223L10.9125 10.1488C10.8739 10.4067 10.9296 10.7059 11.0147 11L11.495 10.861L11.9753 10.722C11.8991 10.4588 11.8961 10.3326 11.9015 10.2972L11.407 10.223ZM11.495 10.861L11.0202 11.0177L14.0232 20.1147L14.498 19.958L14.9728 19.8013L11.9698 10.7043L11.495 10.861ZM14.498 19.958L14.0217 20.1101C14.1925 20.6449 14.3536 21.0681 14.5071 21.3579L14.949 21.124L15.3909 20.8901C15.2804 20.6813 15.1408 20.3271 14.9743 19.8059L14.498 19.958ZM14.949 21.124L14.5101 21.3634C14.6965 21.7052 14.9768 21.958 15.335 22.1116L15.532 21.652L15.729 21.1924C15.5739 21.126 15.4655 21.0268 15.3879 20.8846L14.949 21.124ZM15.532 21.652L15.2991 22.0945C15.5533 22.2282 15.66 22.3296 15.6944 22.3787L16.104 22.092L16.5136 21.8053C16.3427 21.5611 16.0681 21.3691 15.7649 21.2095L15.532 21.652ZM16.104 22.092L15.7015 22.3886C15.7236 22.4186 15.758 22.4881 15.758 22.642H16.258H16.758C16.758 22.3413 16.6898 22.0441 16.5065 21.7954L16.104 22.092ZM16.258 22.642H15.758C15.758 22.7965 15.7152 22.8649 15.6708 22.9073L16.016 23.269L16.3612 23.6307C16.6395 23.3651 16.758 23.0155 16.758 22.642H16.258ZM16.016 23.269L15.6708 22.9073C15.6404 22.9363 15.5412 23 15.268 23V23.5V24C15.6695 24 16.0689 23.9097 16.3612 23.6307L16.016 23.269ZM15.268 23.5V23H10.439V23.5V24H15.268V23.5ZM10.439 23.5V23C10.1549 23 10.0539 22.9347 10.0252 22.9073L9.68 23.269L9.33476 23.6307C9.62879 23.9113 10.0337 24 10.439 24V23.5ZM9.68 23.269L10.0336 22.9154C9.99261 22.8745 9.949 22.8034 9.949 22.642H9.449H8.949C8.949 23.0086 9.05939 23.3555 9.32645 23.6226L9.68 23.269ZM9.449 22.642H9.949C9.949 22.5112 9.97949 22.4459 10.0055 22.4106L9.603 22.114L9.20047 21.8174C9.02118 22.0607 8.949 22.3475 8.949 22.642H9.449ZM9.603 22.114L9.99544 22.4238C10.0421 22.3647 10.1248 22.2961 10.273 22.2326L10.076 21.773L9.87904 21.3134C9.61651 21.4259 9.38389 21.5846 9.21056 21.8042L9.603 22.114ZM10.076 21.773L10.2146 22.2534L10.7866 22.0884L10.648 21.608L10.5094 21.1276L9.93742 21.2926L10.076 21.773ZM10.648 21.608L10.8236 22.0762C10.9776 22.0184 11.1422 21.9179 11.2558 21.7448C11.3731 21.566 11.3979 21.3681 11.3748 21.1913L10.879 21.256L10.3832 21.3207C10.3829 21.3186 10.3812 21.3031 10.3859 21.2785C10.3909 21.2525 10.4018 21.2235 10.4197 21.1962C10.4563 21.1404 10.4944 21.1316 10.4724 21.1398L10.648 21.608ZM10.879 21.256L11.3748 21.1913C11.347 20.978 11.2699 20.6796 11.1591 20.3176L10.681 20.464L10.2029 20.6104C10.3121 20.967 10.367 21.1967 10.3832 21.3207L10.879 21.256ZM10.681 20.464L11.1573 20.312L7.71434 9.52102L7.238 9.673L6.76166 9.82498L10.2047 20.616L10.681 20.464ZM7.238 9.673L7.22015 10.1727L7.52815 10.1837L7.546 9.684L7.56385 9.18432L7.25585 9.17332L7.238 9.673ZM7.546 9.684L7.07041 9.52967L3.70441 19.9027L4.18 20.057L4.65559 20.2113L8.02159 9.83833L7.546 9.684ZM4.18 20.057L3.70236 19.9092C3.60698 20.2173 3.52989 20.4669 3.47111 20.658L3.949 20.805L4.42689 20.952C4.48544 20.7618 4.56235 20.5127 4.65764 20.2048L4.18 20.057ZM3.949 20.805L3.46752 20.6702C3.39163 20.9412 3.38891 21.2449 3.55103 21.5205L3.982 21.267L4.41297 21.0135C4.41799 21.022 4.41787 21.0278 4.41748 21.0224C4.41691 21.0144 4.41684 20.9885 4.43048 20.9398L3.949 20.805ZM3.982 21.267L3.558 21.532C3.71594 21.7847 4.0118 21.9564 4.29025 22.0843L4.499 21.63L4.70775 21.1757C4.58919 21.1212 4.50709 21.0741 4.45357 21.0365C4.3964 20.9964 4.39366 20.9823 4.406 21.002L3.982 21.267ZM4.499 21.63L4.36284 22.1111L4.94584 22.2761L5.082 21.795L5.21816 21.3139L4.63516 21.1489L4.499 21.63ZM5.082 21.795L4.88718 22.2555C5.01936 22.3114 5.09933 22.3746 5.14889 22.4341L5.533 22.114L5.91711 21.7939C5.74667 21.5894 5.52598 21.4399 5.27682 21.3345L5.082 21.795ZM5.533 22.114L5.1593 22.4462C5.17666 22.4657 5.209 22.5132 5.209 22.642H5.709H6.209C6.209 22.3308 6.12401 22.0263 5.9067 21.7818L5.533 22.114ZM25.92 8.331L25.5747 7.96932V7.96932L25.92 8.331ZM30.804 8.331L30.4587 8.69268L30.4587 8.69268L30.804 8.331ZM30.892 9.464L31.2781 9.78198L31.2866 9.77097L30.892 9.464ZM30.408 9.805L30.6003 10.2665L30.6099 10.2625L30.6194 10.2581L30.408 9.805ZM30.012 9.97L29.8196 9.5083L29.8074 9.51375L30.012 9.97ZM29.506 10.366L29.1039 10.0688L29.0996 10.0746L29.0955 10.0805L29.506 10.366ZM29.11 11.246L29.5814 11.4127L29.5818 11.4115L29.11 11.246ZM25.722 20.827L26.1902 21.0026L26.1933 20.9937L25.722 20.827ZM25.425 21.652L24.9506 21.4939L24.9479 21.5019L24.9456 21.51L25.425 21.652ZM25.106 23.28L24.761 22.9178L24.7524 22.9264L25.106 23.28ZM20.992 23.28L20.6293 23.6245L20.6384 23.6336L20.992 23.28ZM20.695 21.751L20.2185 21.9026L20.2216 21.9123L20.2251 21.9219L20.695 21.751ZM20.508 21.201L20.0368 21.3684L20.0371 21.3692L20.508 21.201ZM16.878 10.982L16.406 11.1472L16.4068 11.1494L16.878 10.982ZM16.559 10.344L16.1564 10.6406L16.1653 10.6526L16.1748 10.6641L16.559 10.344ZM16.097 9.992L16.3075 9.5385L16.2975 9.53386L16.2873 9.52966L16.097 9.992ZM15.723 9.838L15.5105 10.2906L15.5214 10.2957L15.5326 10.3003L15.723 9.838ZM15.426 8.331L15.7712 8.69268V8.69268L15.426 8.331ZM22.213 8.331L22.5582 7.96932V7.96932L22.213 8.331ZM22.29 9.475L21.9058 9.15491L21.9004 9.16138L21.8953 9.16803L22.29 9.475ZM21.817 9.816L21.9531 10.2971L21.9882 10.2872L22.0215 10.2723L21.817 9.816ZM21.234 9.981L21.0978 9.4999L21.0758 9.50612L21.0545 9.51433L21.234 9.981ZM20.871 10.388L20.3868 10.2625L20.3838 10.2756L20.871 10.388ZM21.003 11.257L20.5295 11.4178L20.5304 11.4204L21.003 11.257ZM24.38 21.025L24.7456 21.366L24.9508 21.146L24.8525 20.8616L24.38 21.025ZM23.313 22.169L22.8416 22.0021L23.6786 22.51L23.313 22.169ZM27.251 11.048L26.7827 10.8724L26.7796 10.8811L27.251 11.048ZM27.328 10.366L26.8496 10.5116L26.8535 10.5243L26.8581 10.5369L27.328 10.366ZM26.888 9.97L27.0712 9.5048L27.0481 9.49567L27.0241 9.4889L26.888 9.97ZM26.305 9.805L26.0954 10.259L26.131 10.2754L26.1688 10.2861L26.305 9.805ZM25.843 9.486L25.4588 9.80609L25.4685 9.81769L25.4789 9.82868L25.843 9.486ZM25.678 8.958H26.178C26.178 8.80346 26.2208 8.73508 26.2652 8.69268L25.92 8.331L25.5747 7.96932C25.2965 8.23492 25.178 8.58454 25.178 8.958H25.678ZM25.92 8.331L26.2652 8.69268C26.2955 8.66374 26.3948 8.6 26.668 8.6V8.1V7.6C26.2665 7.6 25.8671 7.69026 25.5747 7.96932L25.92 8.331ZM26.668 8.1V8.6H30.045V8.1V7.6H26.668V8.1ZM30.045 8.1V8.6C30.329 8.6 30.4301 8.66534 30.4587 8.69268L30.804 8.331L31.1492 7.96932C30.8552 7.68866 30.4502 7.6 30.045 7.6V8.1ZM30.804 8.331L30.4587 8.69268C30.5031 8.73508 30.546 8.80346 30.546 8.958H31.046H31.546C31.546 8.58454 31.4274 8.23492 31.1492 7.96932L30.804 8.331ZM31.046 8.958H30.546C30.546 9.07813 30.5173 9.13131 30.4973 9.15703L30.892 9.464L31.2866 9.77097C31.472 9.53269 31.546 9.24854 31.546 8.958H31.046ZM30.892 9.464L30.506 9.14615C30.4685 9.19171 30.38 9.26629 30.1965 9.35191L30.408 9.805L30.6194 10.2581C30.8759 10.1384 31.1101 9.98562 31.2779 9.78185L30.892 9.464ZM30.408 9.805L30.2156 9.34346L29.8196 9.50846L30.012 9.97L30.2043 10.4315L30.6003 10.2665L30.408 9.805ZM30.012 9.97L29.8074 9.51375C29.5252 9.64024 29.2851 9.82357 29.1039 10.0688L29.506 10.366L29.908 10.6632C29.9761 10.5711 30.0733 10.4904 30.2165 10.4263L30.012 9.97ZM29.506 10.366L29.0955 10.0805C28.9368 10.3086 28.7866 10.6572 28.6382 11.0805L29.11 11.246L29.5818 11.4115C29.7266 10.9988 29.8405 10.7607 29.9164 10.6515L29.506 10.366ZM29.11 11.246L28.6386 11.0793L25.2506 20.6603L25.722 20.827L26.1933 20.9937L29.5813 11.4127L29.11 11.246ZM25.722 20.827L25.2538 20.6514C25.121 21.0054 25.0195 21.2872 24.9506 21.4939L25.425 21.652L25.8993 21.8101C25.9624 21.6208 26.0589 21.3526 26.1901 21.0026L25.722 20.827ZM25.425 21.652L24.9456 21.51C24.8744 21.7503 24.837 21.9924 24.837 22.235H25.337H25.837C25.837 22.0962 25.8582 21.9497 25.9044 21.794L25.425 21.652ZM25.337 22.235H24.837V22.653H25.337H25.837V22.235H25.337ZM25.337 22.653H24.837C24.837 22.8274 24.7904 22.89 24.7611 22.9179L25.106 23.28L25.4508 23.6421C25.7295 23.3767 25.837 23.0213 25.837 22.653H25.337ZM25.106 23.28L24.7524 22.9264C24.709 22.9699 24.6537 23 24.545 23V23.5V24C24.8909 24 25.2096 23.8834 25.4595 23.6336L25.106 23.28ZM24.545 23.5V23H21.553V23.5V24H24.545V23.5ZM21.553 23.5V23C21.4442 23 21.3889 22.9699 21.3455 22.9264L20.992 23.28L20.6384 23.6336C20.8883 23.8834 21.207 24 21.553 24V23.5ZM20.992 23.28L21.3545 22.9356C21.3362 22.9165 21.283 22.8425 21.283 22.62H20.783H20.283C20.283 22.9842 20.369 23.3502 20.6295 23.6244L20.992 23.28ZM20.783 22.62H21.283V22.202H20.783H20.283V22.62H20.783ZM20.783 22.202H21.283C21.283 21.9926 21.239 21.784 21.1649 21.5801L20.695 21.751L20.2251 21.9219C20.2683 22.0407 20.283 22.1327 20.283 22.202H20.783ZM20.695 21.751L21.1714 21.5994C21.1179 21.4312 21.0536 21.2422 20.9788 21.0328L20.508 21.201L20.0371 21.3692C20.109 21.5705 20.1693 21.7481 20.2185 21.9026L20.695 21.751ZM20.508 21.201L20.9791 21.0336L17.3491 10.8146L16.878 10.982L16.4068 11.1494L20.0368 21.3684L20.508 21.201ZM16.878 10.982L17.3499 10.8168C17.2408 10.5051 17.1107 10.2251 16.9431 10.0239L16.559 10.344L16.1748 10.6641C16.2272 10.7269 16.3098 10.8723 16.406 11.1472L16.878 10.982ZM16.559 10.344L16.9615 10.0474C16.796 9.82283 16.5663 9.65863 16.3075 9.5385L16.097 9.992L15.8864 10.4455C16.0383 10.516 16.1166 10.5865 16.1564 10.6406L16.559 10.344ZM16.097 9.992L16.2873 9.52966L15.9133 9.37566L15.723 9.838L15.5326 10.3003L15.9066 10.4543L16.097 9.992ZM15.723 9.838L15.9354 9.38538C15.8303 9.33602 15.7763 9.28139 15.7451 9.23034C15.7128 9.17766 15.684 9.09471 15.684 8.958H15.184H14.684C14.684 9.23929 14.7449 9.512 14.8923 9.75266C15.0407 9.99494 15.2563 10.1713 15.5105 10.2906L15.723 9.838ZM15.184 8.958H15.684C15.684 8.80346 15.7268 8.73508 15.7712 8.69268L15.426 8.331L15.0807 7.96932C14.8025 8.23492 14.684 8.58454 14.684 8.958H15.184ZM15.426 8.331L15.7712 8.69268C15.8015 8.66374 15.9008 8.6 16.174 8.6V8.1V7.6C15.7725 7.6 15.3731 7.69026 15.0807 7.96932L15.426 8.331ZM16.174 8.1V8.6H21.454V8.1V7.6H16.174V8.1ZM21.454 8.1V8.6C21.738 8.6 21.8391 8.66534 21.8677 8.69268L22.213 8.331L22.5582 7.96932C22.2642 7.68866 21.8592 7.6 21.454 7.6V8.1ZM22.213 8.331L21.8677 8.69268C21.9121 8.73508 21.955 8.80346 21.955 8.958H22.455H22.955C22.955 8.58454 22.8364 8.23492 22.5582 7.96932L22.213 8.331ZM22.455 8.958H21.955C21.955 9.08239 21.9244 9.13258 21.9058 9.15491L22.29 9.475L22.6741 9.79509C22.8755 9.55341 22.955 9.25894 22.955 8.958H22.455ZM22.29 9.475L21.8953 9.16803C21.8587 9.21509 21.7782 9.28542 21.6124 9.35975L21.817 9.816L22.0215 10.2723C22.281 10.1559 22.5159 9.99891 22.6846 9.78197L22.29 9.475ZM21.817 9.816L21.6808 9.3349L21.0978 9.4999L21.234 9.981L21.3701 10.4621L21.9531 10.2971L21.817 9.816ZM21.234 9.981L21.0545 9.51433C20.713 9.64568 20.4787 9.90855 20.387 10.2625L20.871 10.388L21.355 10.5135C21.3632 10.4817 21.3721 10.472 21.3734 10.4706C21.3746 10.4691 21.3831 10.4593 21.4134 10.4477L21.234 9.981ZM20.871 10.388L20.3838 10.2756C20.306 10.6126 20.3939 11.0185 20.5295 11.4178L21.003 11.257L21.4764 11.0962C21.348 10.7181 21.3479 10.5448 21.3581 10.5004L20.871 10.388ZM21.003 11.257L20.5304 11.4204L23.9074 21.1884L24.38 21.025L24.8525 20.8616L21.4755 11.0936L21.003 11.257ZM24.38 21.025L24.0143 20.684L22.9473 21.828L23.313 22.169L23.6786 22.51L24.7456 21.366L24.38 21.025ZM23.313 22.169L23.7843 22.3359L27.7223 11.2149L27.251 11.048L26.7796 10.8811L22.8416 22.0021L23.313 22.169ZM27.251 11.048L27.7191 11.2236C27.8403 10.9004 27.9195 10.5296 27.7978 10.1951L27.328 10.366L26.8581 10.5369C26.8537 10.525 26.8628 10.5401 26.8559 10.6014C26.849 10.6623 26.8283 10.7512 26.7828 10.8724L27.251 11.048ZM27.328 10.366L27.8063 10.2204C27.6925 9.84661 27.3855 9.62859 27.0712 9.5048L26.888 9.97L26.7047 10.4352C26.7868 10.4675 26.8277 10.4966 26.845 10.5121C26.8589 10.5247 26.8535 10.5244 26.8496 10.5116L27.328 10.366ZM26.888 9.97L27.0241 9.4889L26.4411 9.3239L26.305 9.805L26.1688 10.2861L26.7518 10.4511L26.888 9.97ZM26.305 9.805L26.5145 9.35102C26.3692 9.28397 26.2717 9.21206 26.2071 9.14332L25.843 9.486L25.4789 9.82868C25.6488 10.0093 25.8594 10.15 26.0954 10.259L26.305 9.805ZM25.843 9.486L26.2271 9.16591C26.2109 9.1465 26.178 9.0945 26.178 8.958H25.678H25.178C25.178 9.2615 25.255 9.5615 25.4588 9.80609L25.843 9.486Z" fill="white" mask="url(#path-1-outside-1_34_4)"/>
</svg>
